<?xml version="1.0" encoding="UTF-8"?>
<svg xmlns="http://www.w3.org/2000/svg" xmlns:xlink="http://www.w3.org/1999/xlink" width="32pt" height="32pt" viewBox="0 0 32 32" version="1.1">
<g id="surface13544821">
<path style=" stroke:none;fill-rule:nonzero;fill:rgb(85.098039%,52.156863%,97.254902%);fill-opacity:1;" d="M 3.5 1.5 L 28.5 1.5 L 28.5 29.5 L 3.5 29.5 Z M 3.5 1.5 "/>
<path style=" stroke:none;fill-rule:nonzero;fill:rgb(92.941176%,47.058824%,60%);fill-opacity:1;" d="M 27.25 29.5 L 4.75 29.5 C 4.050781 29.5 3.5 28.949219 3.5 28.25 C 3.5 27.550781 4.050781 27 4.75 27 L 27.25 27 C 27.949219 27 28.5 27.550781 28.5 28.25 C 28.5 28.949219 27.949219 29.5 27.25 29.5 Z M 27.25 29.5 "/>
<path style=" stroke:none;fill-rule:nonzero;fill:rgb(96.470588%,67.45098%,100%);fill-opacity:1;" d="M 27 6.5 L 5 6.5 C 4.148438 6.5 3.5 5.851562 3.5 5 L 3.5 3 C 3.5 2.148438 4.148438 1.5 5 1.5 L 27 1.5 C 27.851562 1.5 28.5 2.148438 28.5 3 L 28.5 5 C 28.5 5.851562 27.851562 6.5 27 6.5 Z M 27 6.5 "/>
<path style=" stroke:none;fill-rule:nonzero;fill:rgb(97.647059%,89.019608%,68.235294%);fill-opacity:1;" d="M 25.5 3.5 L 28.5 3.5 L 28.5 6.5 L 25.5 6.5 Z M 25.5 3.5 "/>
<path style=" stroke:none;fill-rule:nonzero;fill:rgb(95.294118%,95.294118%,95.294118%);fill-opacity:1;" d="M 15.5 8.5 C 11.082031 8.5 7.5 12.082031 7.5 16.5 C 7.5 20.917969 11.082031 24.5 15.5 24.5 C 19.917969 24.5 23.5 20.917969 23.5 16.5 C 23.5 12.082031 19.917969 8.5 15.5 8.5 Z M 15.5 8.5 "/>
<path style=" stroke:none;fill-rule:nonzero;fill:rgb(73.333333%,87.058824%,97.647059%);fill-opacity:1;" d="M 15.5 10.5 C 13.300781 10.5 11.351562 11.699219 10.300781 13.449219 C 11.050781 14.25 11.5 15.300781 11.5 16.5 C 11.5 17.699219 11.050781 18.75 10.300781 19.550781 C 11.351562 21.300781 13.300781 22.5 15.5 22.5 C 18.800781 22.5 21.5 19.800781 21.5 16.5 C 21.5 13.199219 18.800781 10.5 15.5 10.5 Z M 15.5 10.5 "/>
<path style=" stroke:none;fill-rule:nonzero;fill:rgb(82.352941%,92.941176%,100%);fill-opacity:1;" d="M 15.5 14 C 14.121094 14 13 15.121094 13 16.5 C 13 17.878906 14.121094 19 15.5 19 C 16.878906 19 18 17.878906 18 16.5 C 18 15.121094 16.878906 14 15.5 14 Z M 15.5 14 "/>
<path style=" stroke:none;fill-rule:nonzero;fill:rgb(95.294118%,95.294118%,95.294118%);fill-opacity:1;" d="M 14 13.5 C 13.171875 13.5 12.5 14.171875 12.5 15 C 12.5 15.828125 13.171875 16.5 14 16.5 C 14.828125 16.5 15.5 15.828125 15.5 15 C 15.5 14.171875 14.828125 13.5 14 13.5 Z M 17.25 17.5 C 16.835938 17.5 16.5 17.835938 16.5 18.25 C 16.5 18.664062 16.835938 19 17.25 19 C 17.664062 19 18 18.664062 18 18.25 C 18 17.835938 17.664062 17.5 17.25 17.5 Z M 17.25 17.5 "/>
<path style=" stroke:none;fill-rule:nonzero;fill:rgb(55.294118%,42.352941%,62.352941%);fill-opacity:1;" d="M 27.5 1 L 4.5 1 C 3.648438 1 3 1.648438 3 2.5 L 3 28.5 C 3 29.351562 3.648438 30 4.5 30 L 27.5 30 C 28.351562 30 29 29.351562 29 28.5 L 29 2.5 C 29 1.648438 28.351562 1 27.5 1 Z M 28 6 L 26 6 L 26 4 L 28 4 Z M 26 3 C 25.449219 3 25 3.449219 25 4 L 25 6 C 25 6.550781 25.449219 7 26 7 L 28 7 L 28 28.5 C 28 28.800781 27.800781 29 27.5 29 L 4.5 29 C 4.199219 29 4 28.800781 4 28.5 L 4 2.5 C 4 2.199219 4.199219 2 4.5 2 L 27.5 2 C 27.800781 2 28 2.199219 28 2.5 L 28 3 Z M 26 3 "/>
<path style=" stroke:none;fill-rule:nonzero;fill:rgb(55.294118%,42.352941%,62.352941%);fill-opacity:1;" d="M 6 3 C 5.449219 3 5 3.449219 5 4 C 5 4.550781 5.449219 5 6 5 C 6.550781 5 7 4.550781 7 4 C 7 3.449219 6.550781 3 6 3 Z M 9 3 C 8.449219 3 8 3.449219 8 4 C 8 4.550781 8.449219 5 9 5 C 9.550781 5 10 4.550781 10 4 C 10 3.449219 9.550781 3 9 3 Z M 23.5 4 L 22.5 4 C 22.199219 4 22 4.199219 22 4.5 C 22 4.800781 22.199219 5 22.5 5 L 23.5 5 C 23.800781 5 24 4.800781 24 4.5 C 24 4.199219 23.800781 4 23.5 4 Z M 7.5 7 C 7.800781 7 8 6.800781 8 6.5 C 8 6.199219 7.800781 6 7.5 6 L 5.5 6 C 5.199219 6 5 6.199219 5 6.5 C 5 6.800781 5.199219 7 5.5 7 Z M 23.5 6 L 9.5 6 C 9.199219 6 9 6.199219 9 6.5 C 9 6.800781 9.199219 7 9.5 7 L 23.5 7 C 23.800781 7 24 6.800781 24 6.5 C 24 6.199219 23.800781 6 23.5 6 Z M 23.101562 20.351562 C 23.25 20.101562 23.351562 19.800781 23.449219 19.5 C 23.550781 19.25 23.398438 18.949219 23.148438 18.851562 C 22.898438 18.75 22.601562 18.898438 22.5 19.148438 C 22.398438 19.398438 22.300781 19.648438 22.148438 19.898438 C 22.050781 20.148438 22.101562 20.449219 22.351562 20.550781 C 22.398438 20.601562 22.5 20.601562 22.601562 20.601562 C 22.851562 20.601562 23 20.5 23.101562 20.351562 Z M 23.101562 20.351562 "/>
<path style=" stroke:none;fill-rule:nonzero;fill:rgb(55.294118%,42.352941%,62.352941%);fill-opacity:1;" d="M 15.5 8 C 10.800781 8 7 11.800781 7 16.5 C 7 21.199219 10.800781 25 15.5 25 C 17.851562 25 20.101562 24 21.699219 22.300781 C 21.898438 22.101562 21.898438 21.800781 21.648438 21.601562 C 21.398438 21.398438 21.148438 21.398438 20.949219 21.601562 C 19.550781 23.101562 17.550781 24 15.449219 24 C 11.300781 24 7.949219 20.648438 7.949219 16.5 C 7.949219 12.351562 11.300781 9 15.449219 9 C 19.601562 9 22.949219 12.351562 22.949219 16.5 C 22.949219 16.699219 22.949219 16.851562 22.949219 17.050781 C 22.949219 17.351562 23.148438 17.550781 23.398438 17.601562 C 23.699219 17.601562 23.898438 17.398438 23.949219 17.148438 C 23.949219 16.949219 23.949219 16.75 23.949219 16.5 C 24 11.800781 20.199219 8 15.5 8 Z M 15.5 8 "/>
<path style=" stroke:none;fill-rule:nonzero;fill:rgb(55.294118%,42.352941%,62.352941%);fill-opacity:1;" d="M 9.800781 19.648438 C 10.949219 21.699219 13.148438 23 15.5 23 C 19.101562 23 22 20.101562 22 16.5 C 22 12.898438 19.101562 10 15.5 10 C 13.148438 10 10.949219 11.300781 9.800781 13.351562 C 9.699219 13.550781 9.75 13.800781 9.898438 13.949219 C 10.601562 14.601562 11 15.5 11 16.5 C 11 17.5 10.601562 18.351562 9.898438 19.050781 C 9.75 19.199219 9.699219 19.449219 9.800781 19.648438 Z M 12 16.5 C 12 15.398438 11.601562 14.351562 10.851562 13.550781 C 11.851562 12 13.601562 11 15.5 11 C 18.550781 11 21 13.449219 21 16.5 C 21 19.550781 18.550781 22 15.5 22 C 13.601562 22 11.898438 21.050781 10.851562 19.449219 C 11.601562 18.648438 12 17.601562 12 16.5 Z M 6 26 C 5.699219 26 5.5 26.199219 5.5 26.5 L 5.5 27.5 C 5.5 27.800781 5.699219 28 6 28 C 6.300781 28 6.5 27.800781 6.5 27.5 L 6.5 26.5 C 6.5 26.199219 6.300781 26 6 26 Z M 8.5 26 C 8.199219 26 8 26.199219 8 26.5 L 8 27.5 C 8 27.800781 8.199219 28 8.5 28 C 8.800781 28 9 27.800781 9 27.5 L 9 26.5 C 9 26.199219 8.800781 26 8.5 26 Z M 11 26 C 10.699219 26 10.5 26.199219 10.5 26.5 L 10.5 27.5 C 10.5 27.800781 10.699219 28 11 28 C 11.300781 28 11.5 27.800781 11.5 27.5 L 11.5 26.5 C 11.5 26.199219 11.300781 26 11 26 Z M 13.5 26 C 13.199219 26 13 26.199219 13 26.5 L 13 27.5 C 13 27.800781 13.199219 28 13.5 28 C 13.800781 28 14 27.800781 14 27.5 L 14 26.5 C 14 26.199219 13.800781 26 13.5 26 Z M 16 26 C 15.699219 26 15.5 26.199219 15.5 26.5 L 15.5 27.5 C 15.5 27.800781 15.699219 28 16 28 C 16.300781 28 16.5 27.800781 16.5 27.5 L 16.5 26.5 C 16.5 26.199219 16.300781 26 16 26 Z M 18.5 26 C 18.199219 26 18 26.199219 18 26.5 L 18 27.5 C 18 27.800781 18.199219 28 18.5 28 C 18.800781 28 19 27.800781 19 27.5 L 19 26.5 C 19 26.199219 18.800781 26 18.5 26 Z M 21 26 C 20.699219 26 20.5 26.199219 20.5 26.5 L 20.5 27.5 C 20.5 27.800781 20.699219 28 21 28 C 21.300781 28 21.5 27.800781 21.5 27.5 L 21.5 26.5 C 21.5 26.199219 21.300781 26 21 26 Z M 23.5 26 C 23.199219 26 23 26.199219 23 26.5 L 23 27.5 C 23 27.800781 23.199219 28 23.5 28 C 23.800781 28 24 27.800781 24 27.5 L 24 26.5 C 24 26.199219 23.800781 26 23.5 26 Z M 26 28 C 26.300781 28 26.5 27.800781 26.5 27.5 L 26.5 26.5 C 26.5 26.199219 26.300781 26 26 26 C 25.699219 26 25.5 26.199219 25.5 26.5 L 25.5 27.5 C 25.5 27.800781 25.699219 28 26 28 Z M 26 28 "/>
</g>
</svg>
