<?xml version="1.0" encoding="UTF-8"?>
<svg xmlns="http://www.w3.org/2000/svg" xmlns:xlink="http://www.w3.org/1999/xlink" width="32pt" height="32pt" viewBox="0 0 32 32" version="1.1">
<g id="surface13544807">
<path style=" stroke:none;fill-rule:nonzero;fill:rgb(81.960784%,61.568627%,83.921569%);fill-opacity:1;" d="M 5.761719 1.921875 C 4.003906 1.921875 2.558594 3.363281 2.558594 5.121094 L 2.558594 21.761719 C 2.558594 23.515625 4.003906 24.960938 5.761719 24.960938 L 8.265625 24.960938 C 8.253906 25.675781 8.261719 26.40625 8.101562 27.003906 C 7.890625 27.785156 7.527344 28.402344 6.710938 28.890625 C 6.464844 29.039062 6.347656 29.332031 6.425781 29.609375 C 6.5 29.886719 6.753906 30.078125 7.039062 30.078125 C 9.753906 30.078125 12.425781 28.621094 13.832031 24.960938 L 26.238281 24.960938 C 27.996094 24.960938 29.441406 23.515625 29.441406 21.761719 L 29.441406 5.121094 C 29.441406 3.363281 27.996094 1.921875 26.238281 1.921875 Z M 5.761719 3.199219 L 26.238281 3.199219 C 27.300781 3.199219 28.160156 4.058594 28.160156 5.121094 L 28.160156 21.761719 C 28.160156 22.820312 27.300781 23.679688 26.238281 23.679688 L 13.441406 23.679688 C 13.164062 23.679688 12.921875 23.855469 12.832031 24.117188 C 11.914062 26.867188 10.460938 28.128906 8.761719 28.585938 C 9.011719 28.183594 9.222656 27.765625 9.339844 27.332031 C 9.609375 26.324219 9.601562 25.28125 9.601562 24.320312 C 9.601562 23.96875 9.3125 23.679688 8.960938 23.679688 L 5.761719 23.679688 C 4.699219 23.679688 3.839844 22.820312 3.839844 21.761719 L 3.839844 5.121094 C 3.839844 4.058594 4.699219 3.199219 5.761719 3.199219 Z M 9.234375 5.761719 L 8.320312 6.675781 L 9.691406 8.960938 L 10.613281 8.960938 L 13.511719 11.859375 L 14.417969 10.949219 L 11.519531 8.054688 L 11.519531 7.128906 Z M 19.839844 5.761719 C 17.71875 5.761719 16 7.480469 16 9.601562 C 16 10.070312 16.089844 10.519531 16.242188 10.933594 L 8.789062 18.390625 C 8.714844 18.460938 8.648438 18.546875 8.589844 18.632812 C 8.566406 18.671875 8.546875 18.714844 8.523438 18.757812 C 8.496094 18.804688 8.464844 18.855469 8.441406 18.90625 C 8.421875 18.960938 8.40625 19.015625 8.390625 19.070312 C 8.378906 19.113281 8.359375 19.160156 8.351562 19.207031 C 8.308594 19.414062 8.308594 19.625 8.351562 19.832031 C 8.359375 19.878906 8.378906 19.921875 8.390625 19.96875 C 8.40625 20.023438 8.421875 20.078125 8.441406 20.128906 C 8.464844 20.183594 8.492188 20.234375 8.519531 20.28125 C 8.542969 20.324219 8.5625 20.363281 8.589844 20.40625 C 8.707031 20.582031 8.859375 20.734375 9.03125 20.851562 C 9.074219 20.875 9.113281 20.894531 9.15625 20.917969 C 9.207031 20.945312 9.253906 20.976562 9.308594 20.996094 C 9.363281 21.019531 9.417969 21.03125 9.46875 21.046875 C 9.515625 21.058594 9.558594 21.078125 9.609375 21.085938 C 9.816406 21.128906 10.027344 21.128906 10.234375 21.085938 C 10.28125 21.078125 10.324219 21.058594 10.371094 21.046875 C 10.425781 21.03125 10.480469 21.019531 10.53125 20.996094 C 10.585938 20.976562 10.636719 20.945312 10.683594 20.917969 C 10.726562 20.894531 10.765625 20.875 10.808594 20.851562 C 10.894531 20.789062 10.976562 20.726562 11.050781 20.648438 L 18.503906 13.199219 C 18.921875 13.351562 19.371094 13.441406 19.839844 13.441406 C 21.960938 13.441406 23.679688 11.71875 23.679688 9.601562 C 23.679688 9.007812 23.542969 8.449219 23.300781 7.949219 L 20.425781 10.824219 L 18.613281 9.015625 L 21.492188 6.136719 C 20.992188 5.898438 20.433594 5.761719 19.839844 5.761719 Z M 19.167969 14.34375 L 16.90625 16.609375 L 20.949219 20.652344 C 21.023438 20.726562 21.105469 20.792969 21.191406 20.851562 C 21.234375 20.878906 21.273438 20.898438 21.316406 20.921875 C 21.363281 20.949219 21.414062 20.976562 21.46875 21 C 21.519531 21.019531 21.574219 21.03125 21.628906 21.050781 C 21.675781 21.0625 21.71875 21.078125 21.765625 21.089844 C 21.972656 21.128906 22.183594 21.128906 22.390625 21.089844 C 22.441406 21.078125 22.484375 21.0625 22.53125 21.050781 C 22.582031 21.03125 22.636719 21.019531 22.691406 21 C 22.746094 20.976562 22.792969 20.949219 22.84375 20.921875 C 22.886719 20.898438 22.925781 20.878906 22.96875 20.851562 C 23.140625 20.734375 23.292969 20.582031 23.410156 20.40625 C 23.4375 20.367188 23.453125 20.324219 23.480469 20.28125 C 23.503906 20.234375 23.535156 20.183594 23.558594 20.128906 C 23.578125 20.078125 23.59375 20.023438 23.609375 19.96875 C 23.621094 19.921875 23.640625 19.878906 23.648438 19.832031 C 23.691406 19.628906 23.691406 19.414062 23.648438 19.207031 C 23.640625 19.160156 23.621094 19.117188 23.609375 19.070312 C 23.59375 19.015625 23.578125 18.960938 23.558594 18.910156 C 23.535156 18.855469 23.503906 18.808594 23.476562 18.757812 C 23.453125 18.714844 23.433594 18.671875 23.410156 18.632812 C 23.351562 18.546875 23.285156 18.460938 23.210938 18.390625 Z M 19.167969 14.34375 "/>
</g>
</svg>
