<?xml version="1.0" encoding="UTF-8"?>
<svg xmlns="http://www.w3.org/2000/svg" xmlns:xlink="http://www.w3.org/1999/xlink" width="32pt" height="32pt" viewBox="0 0 32 32" version="1.1">
<g id="surface13544816">
<path style=" stroke:none;fill-rule:nonzero;fill:rgb(80.392157%,63.137255%,65.490196%);fill-opacity:1;" d="M 3.5 4.5 L 2.5 4.5 C 1.949219 4.5 1.5 4.949219 1.5 5.5 L 1.5 25.5 C 1.5 26.050781 1.949219 26.5 2.5 26.5 L 13.109375 26.5 C 13.632812 26.5 14.089844 26.855469 14.214844 27.363281 C 14.382812 28.03125 14.984375 28.5 15.671875 28.5 L 17.328125 28.5 C 18.015625 28.5 18.617188 28.03125 18.785156 27.363281 C 18.910156 26.855469 19.367188 26.5 19.890625 26.5 L 30.5 26.5 C 31.050781 26.5 31.5 26.050781 31.5 25.5 L 31.5 5.5 C 31.5 4.949219 31.050781 4.5 30.5 4.5 Z M 3.5 4.5 "/>
<path style=" stroke:none;fill-rule:nonzero;fill:rgb(95.686275%,87.058824%,98.039216%);fill-opacity:1;" d="M 16.5 26.5 C 16.5 25.394531 15.605469 24.5 14.5 24.5 L 4.5 24.5 C 3.949219 24.5 3.5 24.050781 3.5 23.5 L 3.5 4.5 C 3.5 3.949219 3.949219 3.5 4.5 3.5 L 14.5 3.5 C 15.605469 3.5 16.5 4.394531 16.5 5.5 Z M 16.5 18.5 L 16.5 5.5 C 16.5 4.394531 17.394531 3.5 18.5 3.5 L 28.5 3.5 C 29.050781 3.5 29.5 3.949219 29.5 4.5 L 29.5 23.5 C 29.5 24.050781 29.050781 24.5 28.5 24.5 L 18.5 24.5 C 17.394531 24.5 16.5 25.394531 16.5 26.5 Z M 16.5 18.5 "/>
<path style=" stroke:none;fill-rule:nonzero;fill:rgb(95.686275%,87.058824%,98.039216%);fill-opacity:1;" d="M 16.5 26 L 15.332031 24.5 L 3.5 24.5 L 3.5 3.5 L 14.5 3.5 C 15.605469 3.5 16.5 4.394531 16.5 5.5 Z M 16.5 26 L 17.667969 24.5 L 29.5 24.5 L 29.5 3.5 L 18.5 3.5 C 17.394531 3.5 16.5 4.394531 16.5 5.5 Z M 16.5 26 "/>
<path style=" stroke:none;fill-rule:nonzero;fill:rgb(93.72549%,84.705882%,74.509804%);fill-opacity:1;" d="M 19.5 3.5 L 18.5 3.5 C 17.394531 3.5 16.5 4.394531 16.5 5.5 L 16.5 26 L 17.667969 24.5 L 19.5 24.5 Z M 19.5 3.5 "/>
<path style=" stroke:none;fill-rule:nonzero;fill:rgb(100%,96.862745%,94.117647%);fill-opacity:1;" d="M 3.5 3.5 L 6 3.5 L 6 24.5 L 3.5 24.5 Z M 3.5 3.5 "/>
<path style=" stroke:none;fill-rule:nonzero;fill:rgb(55.294118%,42.352941%,62.352941%);fill-opacity:1;" d="M 30.5 4 L 29.90625 4 C 29.699219 3.417969 29.152344 3 28.5 3 L 18.5 3 C 17.679688 3 16.957031 3.402344 16.5 4.015625 C 16.042969 3.402344 15.320312 3 14.5 3 L 4.5 3 C 3.847656 3 3.300781 3.417969 3.09375 4 L 2.5 4 C 1.671875 4 1 4.671875 1 5.5 L 1 25.5 C 1 26.328125 1.671875 27 2.5 27 L 13.109375 27 C 13.40625 27 13.660156 27.199219 13.730469 27.484375 C 13.953125 28.378906 14.75 29 15.671875 29 L 17.328125 29 C 18.246094 29 19.046875 28.378906 19.269531 27.484375 C 19.339844 27.199219 19.59375 27 19.890625 27 L 30.5 27 C 31.328125 27 32 26.328125 32 25.5 L 32 5.5 C 32 4.671875 31.328125 4 30.5 4 Z M 4.5 4 L 14.5 4 C 15.328125 4 16 4.671875 16 5.5 L 16 18.5 C 16 18.777344 16.222656 19 16.5 19 C 16.777344 19 17 18.777344 17 18.5 L 17 5.5 C 17 4.671875 17.671875 4 18.5 4 L 28.5 4 C 28.777344 4 29 4.222656 29 4.5 L 29 23.5 C 29 23.777344 28.777344 24 28.5 24 L 18.5 24 C 17.679688 24 16.957031 24.402344 16.5 25.015625 C 16.042969 24.402344 15.320312 24 14.5 24 L 4.5 24 C 4.222656 24 4 23.777344 4 23.5 L 4 4.5 C 4 4.222656 4.222656 4 4.5 4 Z M 31 25.5 C 31 25.777344 30.777344 26 30.5 26 L 19.890625 26 C 19.136719 26 18.480469 26.511719 18.296875 27.242188 C 18.1875 27.6875 17.789062 28 17.328125 28 L 15.671875 28 C 15.210938 28 14.8125 27.6875 14.703125 27.242188 C 14.519531 26.511719 13.863281 26 13.109375 26 L 2.5 26 C 2.222656 26 2 25.777344 2 25.5 L 2 5.5 C 2 5.222656 2.222656 5 2.5 5 L 3 5 L 3 23.5 C 3 24.328125 3.671875 25 4.5 25 L 14.5 25 C 15.328125 25 16 25.671875 16 26.5 C 16 26.777344 16.222656 27 16.5 27 C 16.777344 27 17 26.777344 17 26.5 C 17 25.671875 17.671875 25 18.5 25 L 28.5 25 C 29.328125 25 30 24.328125 30 23.5 L 30 5 L 30.5 5 C 30.777344 5 31 5.222656 31 5.5 Z M 31 25.5 "/>
<path style=" stroke:none;fill-rule:nonzero;fill:rgb(55.294118%,42.352941%,62.352941%);fill-opacity:1;" d="M 16.5 23 C 16.777344 23 17 22.777344 17 22.5 L 17 20.5 C 17 20.222656 16.777344 20 16.5 20 C 16.222656 20 16 20.222656 16 20.5 L 16 22.5 C 16 22.777344 16.222656 23 16.5 23 Z M 6 8 C 6.277344 8 6.5 7.777344 6.5 7.5 L 6.5 6.5 C 6.5 6.222656 6.277344 6 6 6 C 5.722656 6 5.5 6.222656 5.5 6.5 L 5.5 7.5 C 5.5 7.777344 5.722656 8 6 8 Z M 8.5 8 C 8.777344 8 9 7.777344 9 7.5 L 9 6.5 C 9 6.222656 8.777344 6 8.5 6 C 8.222656 6 8 6.222656 8 6.5 L 8 7.5 C 8 7.777344 8.222656 8 8.5 8 Z M 11 8 C 11.277344 8 11.5 7.777344 11.5 7.5 L 11.5 6.5 C 11.5 6.222656 11.277344 6 11 6 C 10.722656 6 10.5 6.222656 10.5 6.5 L 10.5 7.5 C 10.5 7.777344 10.722656 8 11 8 Z M 13.5 8 C 13.777344 8 14 7.777344 14 7.5 L 14 6.5 C 14 6.222656 13.777344 6 13.5 6 C 13.222656 6 13 6.222656 13 6.5 L 13 7.5 C 13 7.777344 13.222656 8 13.5 8 Z M 19.5 8 C 19.777344 8 20 7.777344 20 7.5 L 20 6.5 C 20 6.222656 19.777344 6 19.5 6 C 19.222656 6 19 6.222656 19 6.5 L 19 7.5 C 19 7.777344 19.222656 8 19.5 8 Z M 22 8 C 22.277344 8 22.5 7.777344 22.5 7.5 L 22.5 6.5 C 22.5 6.222656 22.277344 6 22 6 C 21.722656 6 21.5 6.222656 21.5 6.5 L 21.5 7.5 C 21.5 7.777344 21.722656 8 22 8 Z M 24.5 8 C 24.777344 8 25 7.777344 25 7.5 L 25 6.5 C 25 6.222656 24.777344 6 24.5 6 C 24.222656 6 24 6.222656 24 6.5 L 24 7.5 C 24 7.777344 24.222656 8 24.5 8 Z M 27 8 C 27.277344 8 27.5 7.777344 27.5 7.5 L 27.5 6.5 C 27.5 6.222656 27.277344 6 27 6 C 26.722656 6 26.5 6.222656 26.5 6.5 L 26.5 7.5 C 26.5 7.777344 26.722656 8 27 8 Z M 27 8 "/>
</g>
</svg>
