<?xml version="1.0" encoding="UTF-8"?>
<svg xmlns="http://www.w3.org/2000/svg" xmlns:xlink="http://www.w3.org/1999/xlink" width="32pt" height="32pt" viewBox="0 0 32 32" version="1.1">
<g id="surface13544854">
<path style=" stroke:none;fill-rule:nonzero;fill:rgb(78.039216%,63.921569%,80.392157%);fill-opacity:1;" d="M 24.773438 16.082031 C 24.746094 14.777344 25.453125 13.953125 26.636719 13.492188 C 26.5625 12.78125 25.734375 10.773438 25.3125 10.296875 C 24.175781 10.828125 23.101562 10.75 22.195312 9.855469 C 21.277344 8.945312 21.203125 7.859375 21.738281 6.699219 C 20.742188 6.085938 19.671875 5.640625 18.527344 5.375 C 18.140625 6.5 17.390625 7.207031 16.210938 7.292969 C 14.820312 7.394531 13.914062 6.675781 13.4375 5.386719 C 12.292969 5.667969 11.226562 6.109375 10.238281 6.730469 C 10.78125 7.878906 10.710938 8.953125 9.816406 9.863281 C 8.910156 10.785156 7.828125 10.871094 6.664062 10.335938 C 6.054688 11.332031 5.621094 12.398438 5.359375 13.542969 C 6.523438 13.96875 7.222656 14.765625 7.253906 16.003906 C 7.285156 17.292969 6.589844 18.132812 5.394531 18.597656 C 5.671875 19.734375 6.117188 20.789062 6.738281 21.777344 C 7.867188 21.273438 8.921875 21.359375 9.808594 22.222656 C 10.714844 23.105469 10.824219 24.167969 10.324219 25.320312 C 11.324219 25.925781 12.382812 26.359375 13.519531 26.625 C 13.539062 26.589844 13.550781 26.570312 13.558594 26.546875 C 13.96875 25.476562 14.902344 24.792969 15.96875 24.777344 C 17.109375 24.765625 18.054688 25.402344 18.492188 26.488281 C 18.542969 26.605469 18.59375 26.605469 18.699219 26.578125 C 19.726562 26.316406 20.695312 25.917969 21.605469 25.375 C 21.65625 25.34375 21.703125 25.3125 21.742188 25.285156 C 21.28125 24.242188 21.320312 23.25 22.0625 22.386719 C 22.953125 21.351562 24.070312 21.199219 25.3125 21.730469 C 25.925781 20.738281 26.371094 19.679688 26.640625 18.546875 C 25.492188 18.109375 24.800781 17.320312 24.773438 16.082031 Z M 15.996094 17.867188 C 14.960938 17.863281 14.125 17.023438 14.128906 15.988281 C 14.136719 14.953125 14.980469 14.125 16.023438 14.132812 C 17.066406 14.144531 17.898438 15.007812 17.867188 16.054688 C 17.839844 17.027344 17.050781 17.859375 15.996094 17.867188 Z M 15.996094 17.867188 "/>
<path style=" stroke:none;fill-rule:nonzero;fill:rgb(12.156863%,12.941176%,16.862745%);fill-opacity:1;" d="M 13.507812 26.941406 C 13.488281 26.941406 13.46875 26.941406 13.449219 26.933594 C 12.289062 26.667969 11.183594 26.214844 10.15625 25.59375 C 10.019531 25.511719 9.96875 25.339844 10.03125 25.191406 C 10.507812 24.101562 10.359375 23.203125 9.585938 22.453125 C 8.832031 21.714844 7.941406 21.59375 6.867188 22.070312 C 6.722656 22.132812 6.550781 22.082031 6.46875 21.945312 C 5.828125 20.929688 5.363281 19.828125 5.085938 18.675781 C 5.046875 18.519531 5.128906 18.359375 5.28125 18.300781 C 6.417969 17.859375 6.960938 17.109375 6.933594 16.011719 C 6.910156 14.960938 6.359375 14.25 5.25 13.84375 C 5.097656 13.789062 5.011719 13.628906 5.046875 13.472656 C 5.3125 12.304688 5.765625 11.195312 6.390625 10.167969 C 6.472656 10.03125 6.648438 9.976562 6.796875 10.042969 C 7.90625 10.554688 8.816406 10.421875 9.589844 9.640625 C 10.347656 8.867188 10.464844 7.960938 9.949219 6.867188 C 9.878906 6.71875 9.929688 6.542969 10.066406 6.457031 C 11.070312 5.832031 12.175781 5.367188 13.359375 5.078125 C 13.523438 5.039062 13.679688 5.125 13.738281 5.277344 C 14.195312 6.507812 14.996094 7.0625 16.1875 6.976562 C 17.175781 6.902344 17.859375 6.328125 18.222656 5.273438 C 18.277344 5.117188 18.4375 5.027344 18.597656 5.066406 C 19.761719 5.335938 20.875 5.792969 21.90625 6.429688 C 22.042969 6.511719 22.097656 6.6875 22.027344 6.835938 C 21.515625 7.949219 21.644531 8.859375 22.421875 9.628906 C 23.183594 10.378906 24.109375 10.507812 25.175781 10.007812 C 25.304688 9.949219 25.457031 9.980469 25.554688 10.085938 C 26.011719 10.609375 26.875 12.691406 26.953125 13.460938 C 26.96875 13.605469 26.886719 13.738281 26.75 13.792969 C 25.613281 14.234375 25.070312 14.980469 25.09375 16.078125 C 25.113281 17.117188 25.65625 17.828125 26.753906 18.25 C 26.902344 18.304688 26.988281 18.464844 26.949219 18.621094 C 26.675781 19.773438 26.21875 20.875 25.585938 21.898438 C 25.503906 22.03125 25.332031 22.085938 25.1875 22.023438 C 24.007812 21.523438 23.066406 21.710938 22.304688 22.597656 C 21.679688 23.324219 21.59375 24.160156 22.035156 25.15625 C 22.097656 25.300781 22.046875 25.46875 21.917969 25.554688 L 21.882812 25.578125 C 21.847656 25.601562 21.808594 25.625 21.769531 25.648438 C 20.835938 26.207031 19.828125 26.621094 18.773438 26.886719 C 18.429688 26.976562 18.265625 26.785156 18.195312 26.609375 C 17.816406 25.660156 17 25.097656 16.007812 25.097656 C 15.996094 25.097656 15.984375 25.097656 15.972656 25.097656 C 15.03125 25.109375 14.222656 25.710938 13.855469 26.664062 C 13.847656 26.6875 13.835938 26.710938 13.820312 26.742188 C 13.761719 26.855469 13.636719 26.941406 13.507812 26.941406 Z M 10.722656 25.183594 C 11.546875 25.65625 12.421875 26.015625 13.335938 26.25 C 13.832031 25.167969 14.839844 24.472656 15.964844 24.457031 C 17.195312 24.453125 18.226562 25.105469 18.734375 26.238281 C 19.664062 25.988281 20.535156 25.628906 21.34375 25.15625 C 20.933594 24.046875 21.097656 23.023438 21.820312 22.179688 C 22.699219 21.152344 23.859375 20.859375 25.179688 21.332031 C 25.65625 20.511719 26.019531 19.640625 26.261719 18.734375 C 25.085938 18.203125 24.480469 17.316406 24.453125 16.089844 C 24.425781 14.8125 25.054688 13.851562 26.277344 13.296875 C 26.117188 12.601562 25.566406 11.265625 25.207031 10.691406 C 23.984375 11.179688 22.871094 10.96875 21.972656 10.082031 C 21.070312 9.195312 20.855469 8.074219 21.335938 6.832031 C 20.511719 6.355469 19.636719 5.992188 18.726562 5.753906 C 18.25 6.886719 17.394531 7.527344 16.238281 7.613281 C 14.855469 7.71875 13.824219 7.078125 13.246094 5.765625 C 12.320312 6.019531 11.445312 6.382812 10.640625 6.859375 C 11.128906 8.082031 10.925781 9.191406 10.042969 10.085938 C 9.152344 10.992188 8.035156 11.214844 6.796875 10.738281 C 6.324219 11.558594 5.96875 12.4375 5.734375 13.347656 C 6.910156 13.867188 7.546875 14.777344 7.574219 15.996094 C 7.605469 17.269531 6.984375 18.226562 5.773438 18.785156 C 6.019531 19.691406 6.386719 20.5625 6.871094 21.378906 C 8.070312 20.929688 9.15625 21.140625 10.035156 21.992188 C 10.929688 22.863281 11.164062 23.964844 10.722656 25.183594 Z M 15.996094 18.1875 C 14.785156 18.179688 13.804688 17.195312 13.8125 15.988281 C 13.8125 15.402344 14.042969 14.855469 14.460938 14.445312 C 14.878906 14.03125 15.417969 13.804688 16.027344 13.8125 C 16.617188 13.820312 17.167969 14.054688 17.578125 14.480469 C 17.988281 14.910156 18.207031 15.46875 18.1875 16.0625 C 18.15625 17.246094 17.191406 18.179688 16 18.1875 C 16 18.1875 15.996094 18.1875 15.996094 18.1875 Z M 16.003906 14.453125 C 15.589844 14.453125 15.199219 14.613281 14.910156 14.898438 C 14.613281 15.191406 14.453125 15.578125 14.449219 15.992188 C 14.445312 16.84375 15.140625 17.542969 15.996094 17.546875 C 16.84375 17.539062 17.523438 16.882812 17.546875 16.046875 C 17.5625 15.625 17.40625 15.226562 17.117188 14.925781 C 16.828125 14.625 16.4375 14.457031 16.019531 14.453125 C 16.015625 14.453125 16.011719 14.453125 16.003906 14.453125 Z M 16.003906 14.453125 "/>
<path style=" stroke:none;fill-rule:nonzero;fill:rgb(65.490196%,46.666667%,67.058824%);fill-opacity:1;" d="M 22.679688 14.300781 C 21.742188 10.609375 17.988281 8.378906 14.300781 9.320312 C 10.609375 10.257812 8.378906 14.011719 9.320312 17.699219 C 10.257812 21.390625 14.011719 23.621094 17.699219 22.679688 C 21.390625 21.742188 23.621094 17.988281 22.679688 14.300781 Z M 17.359375 21.335938 C 14.410156 22.085938 11.414062 20.304688 10.664062 17.359375 C 9.914062 14.410156 11.695312 11.414062 14.640625 10.664062 C 17.589844 9.914062 20.585938 11.695312 21.335938 14.640625 C 22.085938 17.589844 20.304688 20.585938 17.359375 21.335938 Z M 17.359375 21.335938 "/>
<path style=" stroke:none;fill-rule:nonzero;fill:rgb(12.156863%,12.941176%,16.862745%);fill-opacity:1;" d="M 16.023438 21.734375 C 13.527344 21.734375 11.242188 20.046875 10.601562 17.515625 C 9.839844 14.523438 11.652344 11.472656 14.644531 10.710938 C 17.632812 9.949219 20.6875 11.761719 21.449219 14.753906 C 22.210938 17.746094 20.394531 20.796875 17.40625 21.558594 C 16.945312 21.675781 16.480469 21.734375 16.023438 21.734375 Z M 16.023438 10.855469 C 15.59375 10.855469 15.15625 10.90625 14.722656 11.019531 C 11.898438 11.734375 10.1875 14.617188 10.90625 17.4375 C 11.625 20.257812 14.507812 21.96875 17.328125 21.25 C 20.148438 20.535156 21.859375 17.652344 21.140625 14.832031 C 20.535156 12.445312 18.378906 10.855469 16.023438 10.855469 Z M 17.367188 21.40625 Z M 9.480469 13.847656 C 9.460938 13.847656 9.441406 13.84375 9.425781 13.839844 C 9.34375 13.808594 9.300781 13.71875 9.328125 13.636719 C 10.128906 11.410156 11.96875 9.734375 14.257812 9.15625 C 14.34375 9.132812 14.429688 9.183594 14.449219 9.269531 C 14.472656 9.355469 14.421875 9.441406 14.335938 9.460938 C 12.152344 10.019531 10.390625 11.617188 9.628906 13.742188 C 9.605469 13.808594 9.542969 13.847656 9.480469 13.847656 Z M 9.480469 13.847656 "/>
<path style=" stroke:none;fill-rule:nonzero;fill:rgb(12.156863%,12.941176%,16.862745%);fill-opacity:1;" d="M 16.171875 23.019531 C 15.457031 23.019531 14.730469 22.917969 14.011719 22.703125 C 11.554688 21.972656 9.730469 20.132812 9.132812 17.777344 C 9.113281 17.691406 9.164062 17.605469 9.25 17.585938 C 9.335938 17.5625 9.421875 17.613281 9.441406 17.699219 C 10.011719 19.945312 11.753906 21.699219 14.101562 22.398438 C 16.464844 23.101562 18.902344 22.574219 20.625 20.988281 C 20.6875 20.929688 20.789062 20.933594 20.847656 21 C 20.90625 21.0625 20.902344 21.164062 20.839844 21.222656 C 19.5625 22.398438 17.90625 23.019531 16.171875 23.019531 Z M 16.171875 23.019531 "/>
<path style=" stroke:none;fill-rule:nonzero;fill:rgb(78.039216%,63.921569%,80.392157%);fill-opacity:1;" d="M 22.089844 19.351562 C 21.949219 19.613281 21.789062 19.867188 21.613281 20.109375 "/>
<path style=" stroke:none;fill-rule:nonzero;fill:rgb(12.156863%,12.941176%,16.862745%);fill-opacity:1;" d="M 21.613281 20.269531 C 21.582031 20.269531 21.550781 20.257812 21.519531 20.238281 C 21.449219 20.1875 21.433594 20.085938 21.484375 20.015625 C 21.65625 19.78125 21.8125 19.535156 21.953125 19.277344 C 21.996094 19.199219 22.09375 19.171875 22.167969 19.214844 C 22.246094 19.253906 22.273438 19.351562 22.230469 19.429688 C 22.085938 19.699219 21.921875 19.957031 21.742188 20.203125 C 21.710938 20.246094 21.664062 20.269531 21.613281 20.269531 Z M 21.613281 20.269531 "/>
<path style=" stroke:none;fill-rule:nonzero;fill:rgb(78.039216%,63.921569%,80.392157%);fill-opacity:1;" d="M 22.769531 17.566406 C 22.675781 17.980469 22.539062 18.386719 22.371094 18.78125 "/>
<path style=" stroke:none;fill-rule:nonzero;fill:rgb(12.156863%,12.941176%,16.862745%);fill-opacity:1;" d="M 22.371094 18.9375 C 22.351562 18.9375 22.328125 18.933594 22.308594 18.925781 C 22.226562 18.890625 22.191406 18.796875 22.226562 18.71875 C 22.390625 18.335938 22.523438 17.9375 22.613281 17.53125 C 22.632812 17.445312 22.71875 17.390625 22.804688 17.410156 C 22.890625 17.429688 22.945312 17.515625 22.925781 17.601562 C 22.828125 18.027344 22.691406 18.445312 22.515625 18.84375 C 22.492188 18.902344 22.433594 18.9375 22.371094 18.9375 Z M 22.726562 14.476562 C 22.65625 14.476562 22.589844 14.429688 22.574219 14.355469 C 22.011719 12.148438 20.386719 10.378906 18.230469 9.628906 C 18.148438 9.597656 18.105469 9.507812 18.132812 9.425781 C 18.164062 9.34375 18.253906 9.300781 18.335938 9.328125 C 20.59375 10.113281 22.292969 11.964844 22.878906 14.277344 C 22.902344 14.363281 22.851562 14.449219 22.765625 14.472656 C 22.753906 14.472656 22.738281 14.476562 22.726562 14.476562 Z M 22.726562 14.476562 "/>
<path style=" stroke:none;fill-rule:nonzero;fill:rgb(78.039216%,63.921569%,80.392157%);fill-opacity:1;" d="M 18.472656 11.105469 L 20.316406 10.660156 "/>
<path style=" stroke:none;fill-rule:nonzero;fill:rgb(12.156863%,12.941176%,16.862745%);fill-opacity:1;" d="M 18.472656 11.265625 C 18.398438 11.265625 18.335938 11.214844 18.316406 11.144531 C 18.296875 11.058594 18.351562 10.972656 18.433594 10.953125 L 20.277344 10.503906 C 20.363281 10.484375 20.449219 10.539062 20.46875 10.621094 C 20.488281 10.707031 20.4375 10.792969 20.351562 10.8125 L 18.507812 11.261719 C 18.496094 11.261719 18.484375 11.265625 18.472656 11.265625 Z M 18.472656 11.265625 "/>
<path style=" stroke:none;fill-rule:nonzero;fill:rgb(78.039216%,63.921569%,80.392157%);fill-opacity:1;" d="M 20.078125 12.164062 L 21.464844 11.9375 "/>
<path style=" stroke:none;fill-rule:nonzero;fill:rgb(12.156863%,12.941176%,16.862745%);fill-opacity:1;" d="M 20.078125 12.324219 C 20.003906 12.324219 19.933594 12.269531 19.921875 12.191406 C 19.90625 12.105469 19.964844 12.023438 20.054688 12.007812 L 21.4375 11.777344 C 21.523438 11.761719 21.605469 11.824219 21.621094 11.910156 C 21.636719 11.996094 21.578125 12.078125 21.492188 12.09375 L 20.105469 12.320312 C 20.09375 12.324219 20.085938 12.324219 20.078125 12.324219 Z M 20.078125 12.324219 "/>
<path style=" stroke:none;fill-rule:nonzero;fill:rgb(78.039216%,63.921569%,80.392157%);fill-opacity:1;" d="M 20.976562 13.585938 L 22.382812 13.433594 "/>
<path style=" stroke:none;fill-rule:nonzero;fill:rgb(12.156863%,12.941176%,16.862745%);fill-opacity:1;" d="M 20.976562 13.746094 C 20.898438 13.746094 20.828125 13.683594 20.820312 13.605469 C 20.808594 13.515625 20.875 13.4375 20.960938 13.429688 L 22.367188 13.277344 C 22.449219 13.265625 22.53125 13.332031 22.542969 13.417969 C 22.550781 13.503906 22.488281 13.582031 22.398438 13.59375 L 20.996094 13.746094 C 20.988281 13.746094 20.984375 13.746094 20.976562 13.746094 Z M 20.976562 13.746094 "/>
<path style=" stroke:none;fill-rule:nonzero;fill:rgb(78.039216%,63.921569%,80.392157%);fill-opacity:1;" d="M 13.367188 9.703125 L 13.503906 10.988281 "/>
<path style=" stroke:none;fill-rule:nonzero;fill:rgb(12.156863%,12.941176%,16.862745%);fill-opacity:1;" d="M 13.503906 11.148438 C 13.425781 11.148438 13.355469 11.089844 13.347656 11.007812 L 13.210938 9.71875 C 13.199219 9.632812 13.261719 9.554688 13.351562 9.546875 C 13.429688 9.535156 13.515625 9.597656 13.523438 9.6875 L 13.664062 10.972656 C 13.671875 11.058594 13.609375 11.136719 13.523438 11.148438 C 13.515625 11.148438 13.511719 11.148438 13.503906 11.148438 Z M 13.503906 11.148438 "/>
<path style=" stroke:none;fill-rule:nonzero;fill:rgb(78.039216%,63.921569%,80.392157%);fill-opacity:1;" d="M 12 10.425781 L 12.425781 11.847656 "/>
<path style=" stroke:none;fill-rule:nonzero;fill:rgb(12.156863%,12.941176%,16.862745%);fill-opacity:1;" d="M 12.425781 12.003906 C 12.355469 12.003906 12.292969 11.960938 12.273438 11.890625 L 11.847656 10.46875 C 11.824219 10.386719 11.871094 10.296875 11.953125 10.273438 C 12.039062 10.25 12.125 10.292969 12.152344 10.378906 L 12.574219 11.800781 C 12.601562 11.886719 12.554688 11.972656 12.46875 12 C 12.453125 12.003906 12.4375 12.003906 12.425781 12.003906 Z M 12.425781 12.003906 "/>
<path style=" stroke:none;fill-rule:nonzero;fill:rgb(78.039216%,63.921569%,80.392157%);fill-opacity:1;" d="M 10.628906 11.679688 L 11.464844 12.917969 "/>
<path style=" stroke:none;fill-rule:nonzero;fill:rgb(12.156863%,12.941176%,16.862745%);fill-opacity:1;" d="M 11.464844 13.078125 C 11.414062 13.078125 11.363281 13.054688 11.332031 13.007812 L 10.496094 11.769531 C 10.445312 11.699219 10.464844 11.597656 10.539062 11.550781 C 10.613281 11.5 10.710938 11.519531 10.757812 11.59375 L 11.59375 12.832031 C 11.644531 12.902344 11.625 13.003906 11.550781 13.050781 C 11.523438 13.070312 11.492188 13.078125 11.464844 13.078125 Z M 11.464844 13.078125 "/>
<path style=" stroke:none;fill-rule:nonzero;fill:rgb(78.039216%,63.921569%,80.392157%);fill-opacity:1;" d="M 9.628906 18.621094 L 11.054688 18.546875 "/>
<path style=" stroke:none;fill-rule:nonzero;fill:rgb(12.156863%,12.941176%,16.862745%);fill-opacity:1;" d="M 9.628906 18.78125 C 9.542969 18.78125 9.476562 18.714844 9.46875 18.628906 C 9.464844 18.542969 9.53125 18.46875 9.621094 18.464844 L 11.046875 18.390625 C 11.144531 18.386719 11.207031 18.453125 11.214844 18.539062 C 11.21875 18.628906 11.152344 18.703125 11.0625 18.707031 L 9.636719 18.78125 C 9.632812 18.78125 9.632812 18.78125 9.628906 18.78125 Z M 9.628906 18.78125 "/>
<path style=" stroke:none;fill-rule:nonzero;fill:rgb(78.039216%,63.921569%,80.392157%);fill-opacity:1;" d="M 10.488281 20.167969 L 11.871094 19.757812 "/>
<path style=" stroke:none;fill-rule:nonzero;fill:rgb(12.156863%,12.941176%,16.862745%);fill-opacity:1;" d="M 10.488281 20.328125 C 10.417969 20.328125 10.355469 20.285156 10.335938 20.214844 C 10.308594 20.132812 10.359375 20.042969 10.441406 20.019531 L 11.824219 19.605469 C 11.910156 19.582031 12 19.628906 12.023438 19.710938 C 12.046875 19.796875 12 19.886719 11.917969 19.910156 L 10.53125 20.324219 C 10.519531 20.328125 10.503906 20.328125 10.488281 20.328125 Z M 10.488281 20.328125 "/>
<path style=" stroke:none;fill-rule:nonzero;fill:rgb(78.039216%,63.921569%,80.392157%);fill-opacity:1;" d="M 11.976562 21.464844 L 13.144531 20.863281 "/>
<path style=" stroke:none;fill-rule:nonzero;fill:rgb(12.156863%,12.941176%,16.862745%);fill-opacity:1;" d="M 11.976562 21.625 C 11.917969 21.625 11.863281 21.589844 11.835938 21.535156 C 11.792969 21.460938 11.824219 21.363281 11.902344 21.324219 L 13.070312 20.722656 C 13.148438 20.683594 13.246094 20.714844 13.285156 20.792969 C 13.324219 20.871094 13.292969 20.964844 13.214844 21.003906 L 12.046875 21.605469 C 12.023438 21.617188 12 21.625 11.976562 21.625 Z M 11.976562 21.625 "/>
<path style=" stroke:none;fill-rule:nonzero;fill:rgb(78.039216%,63.921569%,80.392157%);fill-opacity:1;" d="M 13.882812 22.355469 L 14.746094 21.53125 "/>
<path style=" stroke:none;fill-rule:nonzero;fill:rgb(12.156863%,12.941176%,16.862745%);fill-opacity:1;" d="M 13.882812 22.515625 C 13.839844 22.515625 13.796875 22.496094 13.765625 22.464844 C 13.707031 22.402344 13.707031 22.300781 13.773438 22.242188 L 14.636719 21.414062 C 14.699219 21.355469 14.796875 21.359375 14.859375 21.421875 C 14.917969 21.484375 14.917969 21.585938 14.855469 21.644531 L 13.992188 22.46875 C 13.960938 22.5 13.921875 22.515625 13.882812 22.515625 Z M 13.882812 22.515625 "/>
<path style=" stroke:none;fill-rule:nonzero;fill:rgb(78.039216%,63.921569%,80.392157%);fill-opacity:1;" d="M 15.9375 22.855469 L 16.605469 21.605469 "/>
<path style=" stroke:none;fill-rule:nonzero;fill:rgb(12.156863%,12.941176%,16.862745%);fill-opacity:1;" d="M 15.9375 23.011719 C 15.910156 23.011719 15.886719 23.007812 15.863281 22.996094 C 15.785156 22.953125 15.753906 22.855469 15.796875 22.78125 L 16.46875 21.53125 C 16.507812 21.453125 16.605469 21.425781 16.683594 21.464844 C 16.757812 21.507812 16.789062 21.605469 16.746094 21.679688 L 16.078125 22.929688 C 16.046875 22.984375 15.992188 23.011719 15.9375 23.011719 Z M 15.9375 23.011719 "/>
<path style=" stroke:none;fill-rule:nonzero;fill:rgb(78.039216%,63.921569%,80.392157%);fill-opacity:1;" d="M 18.15625 22.496094 L 18.261719 21.183594 "/>
<path style=" stroke:none;fill-rule:nonzero;fill:rgb(12.156863%,12.941176%,16.862745%);fill-opacity:1;" d="M 18.15625 22.65625 C 18.152344 22.65625 18.148438 22.65625 18.144531 22.65625 C 18.054688 22.648438 17.992188 22.570312 17.996094 22.484375 L 18.101562 21.171875 C 18.109375 21.085938 18.1875 21.019531 18.273438 21.027344 C 18.359375 21.035156 18.425781 21.109375 18.417969 21.199219 L 18.3125 22.511719 C 18.308594 22.59375 18.238281 22.65625 18.15625 22.65625 Z M 18.15625 22.65625 "/>
<path style=" stroke:none;fill-rule:nonzero;fill:rgb(78.039216%,63.921569%,80.392157%);fill-opacity:1;" d="M 15.003906 9.152344 C 15.425781 9.09375 15.855469 9.074219 16.28125 9.09375 "/>
<path style=" stroke:none;fill-rule:nonzero;fill:rgb(12.156863%,12.941176%,16.862745%);fill-opacity:1;" d="M 15.003906 9.308594 C 14.925781 9.308594 14.859375 9.253906 14.847656 9.171875 C 14.835938 9.085938 14.894531 9.007812 14.980469 8.992188 C 15.414062 8.933594 15.851562 8.914062 16.289062 8.9375 C 16.375 8.941406 16.445312 9.015625 16.4375 9.101562 C 16.433594 9.191406 16.371094 9.265625 16.273438 9.253906 C 15.855469 9.234375 15.4375 9.253906 15.027344 9.308594 C 15.019531 9.308594 15.011719 9.308594 15.003906 9.308594 Z M 15.003906 9.308594 "/>
</g>
</svg>
