<?xml version="1.0" encoding="UTF-8"?>
<svg xmlns="http://www.w3.org/2000/svg" xmlns:xlink="http://www.w3.org/1999/xlink" width="32pt" height="32pt" viewBox="0 0 32 32" version="1.1">
<g id="surface13544803">
<path style="fill:none;stroke-width:1;stroke-linecap:round;stroke-linejoin:miter;stroke:rgb(27.843137%,53.333333%,78.039216%);stroke-opacity:1;stroke-miterlimit:10;" d="M 144.054199 6.445801 L 165.554199 6.445801 L 165.554199 8.608398 L 144.054199 34.391602 L 144.054199 36.554199 L 165.554199 36.554199 M 113.945801 27.945801 L 131.141602 27.945801 L 131.141602 30.108398 L 113.945801 47.304199 L 113.945801 49.445801 L 131.141602 49.445801 M 83.858398 45.141602 L 96.75 45.141602 L 96.75 47.304199 L 83.858398 60.195801 L 83.858398 62.358398 L 96.75 62.358398 " transform="matrix(0.186047,0,0,0.186047,0,0)"/>
<path style=" stroke:none;fill-rule:nonzero;fill:rgb(97.254902%,87.45098%,99.607843%);fill-opacity:1;" d="M 27.601562 30.800781 L 27.601562 28.398438 L 4.398438 28.398438 L 4.398438 30.800781 L 1.199219 30.800781 L 1.199219 11.601562 C 1.199219 10.71875 1.917969 10 2.800781 10 C 3.683594 10 4.398438 10.71875 4.398438 11.601562 L 4.398438 25.199219 L 30.800781 25.199219 L 30.800781 30.800781 Z M 27.601562 30.800781 "/>
<path style=" stroke:none;fill-rule:nonzero;fill:rgb(27.843137%,53.333333%,78.039216%);fill-opacity:1;" d="M 2.800781 10.398438 C 3.460938 10.398438 4 10.9375 4 11.601562 L 4 25.601562 L 30.398438 25.601562 L 30.398438 30.398438 L 28 30.398438 L 28 28 L 4 28 L 4 30.398438 L 1.601562 30.398438 L 1.601562 11.601562 C 1.601562 10.9375 2.136719 10.398438 2.800781 10.398438 M 2.800781 9.601562 C 1.695312 9.601562 0.800781 10.496094 0.800781 11.601562 L 0.800781 31.199219 L 4.800781 31.199219 L 4.800781 28.800781 L 27.199219 28.800781 L 27.199219 31.199219 L 31.199219 31.199219 L 31.199219 24.800781 L 4.800781 24.800781 L 4.800781 11.601562 C 4.800781 10.496094 3.90625 9.601562 2.800781 9.601562 Z M 2.800781 9.601562 "/>
<path style=" stroke:none;fill-rule:nonzero;fill:rgb(71.372549%,86.27451%,99.607843%);fill-opacity:1;" d="M 4.398438 22.800781 L 30.800781 22.800781 L 30.800781 25.199219 L 4.398438 25.199219 Z M 4.398438 22.800781 "/>
<path style=" stroke:none;fill-rule:nonzero;fill:rgb(27.843137%,53.333333%,78.039216%);fill-opacity:1;" d="M 30.398438 23.199219 L 30.398438 24.800781 L 4.800781 24.800781 L 4.800781 23.199219 L 30.398438 23.199219 M 31.199219 22.398438 L 4 22.398438 L 4 25.601562 L 31.199219 25.601562 Z M 31.199219 22.398438 "/>
<path style=" stroke:none;fill-rule:nonzero;fill:rgb(95.686275%,67.843137%,98.039216%);fill-opacity:1;" d="M 11.601562 25.199219 L 11.601562 16.398438 L 25.601562 16.398438 C 28.46875 16.398438 30.800781 18.734375 30.800781 21.601562 L 30.800781 25.199219 Z M 11.601562 25.199219 "/>
<path style=" stroke:none;fill-rule:nonzero;fill:rgb(27.843137%,53.333333%,78.039216%);fill-opacity:1;" d="M 25.601562 16.800781 C 28.246094 16.800781 30.398438 18.953125 30.398438 21.601562 L 30.398438 24.800781 L 12 24.800781 L 12 16.800781 L 25.601562 16.800781 M 25.601562 16 L 11.199219 16 L 11.199219 25.601562 L 31.199219 25.601562 L 31.199219 21.601562 C 31.199219 18.507812 28.691406 16 25.601562 16 Z M 25.601562 16 "/>
<path style=" stroke:none;fill-rule:nonzero;fill:rgb(100%,100%,100%);fill-opacity:1;" d="M 8 16.398438 C 6.453125 16.398438 5.199219 17.652344 5.199219 19.199219 C 5.199219 20.746094 6.453125 22 8 22 C 9.546875 22 10.800781 20.746094 10.800781 19.199219 C 10.800781 17.652344 9.546875 16.398438 8 16.398438 Z M 8 16.398438 "/>
<path style=" stroke:none;fill-rule:nonzero;fill:rgb(27.843137%,53.333333%,78.039216%);fill-opacity:1;" d="M 8 16.800781 C 9.324219 16.800781 10.398438 17.875 10.398438 19.199219 C 10.398438 20.523438 9.324219 21.601562 8 21.601562 C 6.675781 21.601562 5.601562 20.523438 5.601562 19.199219 C 5.601562 17.875 6.675781 16.800781 8 16.800781 M 8 16 C 6.234375 16 4.800781 17.433594 4.800781 19.199219 C 4.800781 20.96875 6.234375 22.398438 8 22.398438 C 9.765625 22.398438 11.199219 20.96875 11.199219 19.199219 C 11.199219 17.433594 9.765625 16 8 16 Z M 8 16 "/>
</g>
</svg>
