<?xml version="1.0" encoding="UTF-8"?>
<svg xmlns="http://www.w3.org/2000/svg" xmlns:xlink="http://www.w3.org/1999/xlink" width="32pt" height="32pt" viewBox="0 0 32 32" version="1.1">
<g id="surface13544827">
<path style=" stroke:none;fill-rule:nonzero;fill:rgb(68.235294%,83.529412%,50.588235%);fill-opacity:1;" d="M 24.703125 19.207031 L 22.574219 20.542969 C 22.574219 20.542969 23.285156 22.542969 24.703125 21.875 C 26.121094 21.207031 24.703125 19.207031 24.703125 19.207031 Z M 24.703125 19.207031 "/>
<path style=" stroke:none;fill-rule:nonzero;fill:rgb(91.764706%,70.196078%,83.137255%);fill-opacity:1;" d="M 25.332031 18.667969 L 20.667969 20 L 20.667969 12.667969 C 20.667969 12.667969 21.015625 12.5625 21.332031 12.667969 C 23.332031 13.332031 25.332031 18.667969 25.332031 18.667969 Z M 25.332031 18.667969 "/>
<path style=" stroke:none;fill-rule:nonzero;fill:rgb(91.764706%,70.196078%,83.137255%);fill-opacity:1;" d="M 6.667969 18.667969 L 11.332031 20 L 11.332031 12.667969 C 11.332031 12.667969 10.984375 12.5625 10.667969 12.667969 C 8.667969 13.332031 6.667969 18.667969 6.667969 18.667969 Z M 6.667969 18.667969 "/>
<path style=" stroke:none;fill-rule:nonzero;fill:rgb(88.627451%,30.196078%,100%);fill-opacity:1;" d="M 25.4375 19.910156 L 22.152344 21.140625 C 21.769531 21.285156 21.34375 21.089844 21.199219 20.707031 L 20.785156 19.59375 C 20.640625 19.210938 20.835938 18.785156 21.21875 18.644531 L 24.5 17.414062 C 24.882812 17.269531 25.308594 17.464844 25.453125 17.847656 L 25.871094 18.957031 C 26.011719 19.339844 25.820312 19.765625 25.4375 19.910156 Z M 25.4375 19.910156 "/>
<path style=" stroke:none;fill-rule:nonzero;fill:rgb(68.235294%,83.529412%,50.588235%);fill-opacity:1;" d="M 7.296875 19.207031 L 9.425781 20.542969 C 9.425781 20.542969 8.714844 22.542969 7.296875 21.875 C 5.878906 21.207031 7.296875 19.207031 7.296875 19.207031 Z M 7.296875 19.207031 "/>
<path style=" stroke:none;fill-rule:nonzero;fill:rgb(88.627451%,30.196078%,100%);fill-opacity:1;" d="M 6.5625 19.910156 L 9.847656 21.140625 C 10.230469 21.285156 10.65625 21.089844 10.800781 20.707031 L 11.214844 19.59375 C 11.359375 19.210938 11.164062 18.785156 10.78125 18.644531 L 7.5 17.414062 C 7.117188 17.269531 6.691406 17.464844 6.546875 17.847656 L 6.128906 18.957031 C 5.988281 19.339844 6.179688 19.765625 6.5625 19.910156 Z M 6.5625 19.910156 "/>
<path style=" stroke:none;fill-rule:nonzero;fill:rgb(91.764706%,70.196078%,83.137255%);fill-opacity:1;" d="M 23.859375 26.25 C 23.941406 26.894531 23.554688 27.507812 22.933594 27.695312 C 21.636719 28.089844 18.628906 28.667969 16 28.667969 C 13.371094 28.667969 10.363281 28.089844 9.066406 27.695312 C 8.445312 27.507812 8.058594 26.894531 8.140625 26.25 L 11.332031 12 L 20.667969 12 Z M 23.859375 26.25 "/>
<path style=" stroke:none;fill-rule:nonzero;fill:rgb(100%,54.117647%,39.607843%);fill-opacity:1;" d="M 22 6 C 21.085938 6 20.074219 6.183594 19.667969 7 L 19.667969 9.667969 C 22.667969 10 28 6 28 6 Z M 22 6 "/>
<path style=" stroke:none;fill-rule:nonzero;fill:rgb(68.235294%,83.529412%,50.588235%);fill-opacity:1;" d="M 20.019531 10.351562 C 19.875 10.351562 19.730469 10.34375 19.59375 10.328125 L 19.738281 9.003906 C 21.347656 9.179688 23.957031 7.839844 25.828125 6.667969 L 22 6.667969 C 21.058594 6.667969 20.472656 6.878906 20.261719 7.296875 L 19.070312 6.703125 C 19.523438 5.792969 20.511719 5.332031 22 5.332031 L 28 5.332031 C 28.289062 5.332031 28.542969 5.515625 28.632812 5.789062 C 28.722656 6.0625 28.628906 6.363281 28.398438 6.535156 C 28.183594 6.695312 23.269531 10.351562 20.019531 10.351562 Z M 20.019531 10.351562 "/>
<path style=" stroke:none;fill-rule:nonzero;fill:rgb(100%,54.117647%,39.607843%);fill-opacity:1;" d="M 10 6 L 4 6 C 4 6 9.332031 10 12.332031 9.667969 L 12.332031 7 C 11.925781 6.183594 10.914062 6 10 6 Z M 10 6 "/>
<path style=" stroke:none;fill-rule:nonzero;fill:rgb(68.235294%,83.529412%,50.588235%);fill-opacity:1;" d="M 11.980469 10.351562 C 8.730469 10.351562 3.816406 6.695312 3.601562 6.535156 C 3.371094 6.363281 3.277344 6.0625 3.367188 5.789062 C 3.457031 5.515625 3.710938 5.332031 4 5.332031 L 10 5.332031 C 11.488281 5.332031 12.476562 5.792969 12.929688 6.703125 L 11.738281 7.296875 C 11.527344 6.878906 10.941406 6.667969 10 6.667969 L 6.171875 6.667969 C 8.042969 7.835938 10.660156 9.179688 12.261719 9.003906 L 12.40625 10.328125 C 12.269531 10.34375 12.125 10.351562 11.980469 10.351562 Z M 11.980469 10.351562 "/>
<path style=" stroke:none;fill-rule:nonzero;fill:rgb(68.235294%,83.529412%,50.588235%);fill-opacity:1;" d="M 16 4 C 12.660156 4 10.667969 5.554688 10.667969 8.160156 C 10.667969 10.492188 12.367188 12 15 12 L 17 12 C 19.632812 12 21.332031 10.492188 21.332031 8.160156 C 21.332031 5.554688 19.339844 4 16 4 Z M 16 4 "/>
<path style=" stroke:none;fill-rule:nonzero;fill:rgb(48.627451%,70.196078%,25.882353%);fill-opacity:1;" d="M 16.667969 10.667969 C 16.667969 11.035156 16.367188 11.332031 16 11.332031 C 15.632812 11.332031 15.332031 11.035156 15.332031 10.667969 Z M 16.667969 10.667969 "/>
<path style=" stroke:none;fill-rule:nonzero;fill:rgb(48.627451%,70.196078%,25.882353%);fill-opacity:1;" d="M 16 8.050781 L 15.835938 7.957031 C 13.707031 6.738281 11.871094 7.933594 11.851562 7.945312 L 11.480469 7.390625 C 11.566406 7.332031 13.585938 6.019531 16 7.285156 C 18.410156 6.019531 20.429688 7.332031 20.515625 7.390625 L 20.148438 7.945312 C 20.074219 7.894531 18.28125 6.746094 16.164062 7.957031 Z M 16 8.050781 "/>
<path style=" stroke:none;fill-rule:nonzero;fill:rgb(88.627451%,30.196078%,100%);fill-opacity:1;" d="M 17.332031 12.667969 L 17.332031 28.621094 C 16.878906 28.652344 16.433594 28.667969 16 28.667969 C 15.566406 28.667969 15.121094 28.652344 14.667969 28.621094 L 14.667969 12.667969 Z M 17.332031 12.667969 "/>
<path style=" stroke:none;fill-rule:nonzero;fill:rgb(88.627451%,30.196078%,100%);fill-opacity:1;" d="M 21.183594 10 C 20.039062 10.429688 19.703125 12 16 12 C 12.296875 12 11.960938 10.429688 10.816406 10 C 9.71875 9.589844 9.332031 12 9.332031 13.332031 C 9.332031 15.21875 16 15.332031 16 15.332031 C 16 15.332031 22.667969 15.21875 22.667969 13.332031 C 22.667969 12 22.28125 9.589844 21.183594 10 Z M 21.183594 10 "/>
<path style=" stroke:none;fill-rule:nonzero;fill:rgb(24.313725%,15.294118%,13.72549%);fill-opacity:1;" d="M 15.332031 10 C 15.332031 8 12.667969 8 12 9.332031 C 12 10 14 11.332031 15.332031 10 Z M 15.332031 10 "/>
<path style=" stroke:none;fill-rule:nonzero;fill:rgb(24.313725%,15.294118%,13.72549%);fill-opacity:1;" d="M 16.667969 10 C 16.667969 8 19.332031 8 20 9.332031 C 20 10 18 11.332031 16.667969 10 Z M 16.667969 10 "/>
<path style=" stroke:none;fill-rule:nonzero;fill:rgb(100%,65.490196%,14.901961%);fill-opacity:1;" d="M 18.085938 14.640625 C 17.925781 14.859375 17.746094 15.066406 17.546875 15.253906 L 17.539062 15.253906 C 16.648438 15.320312 16 15.332031 16 15.332031 C 16 15.332031 15.320312 15.320312 14.398438 15.246094 C 15.566406 15.078125 16.472656 14.601562 17 13.859375 C 17.414062 13.285156 17.578125 12.574219 17.453125 11.898438 C 17.972656 11.828125 18.394531 11.714844 18.746094 11.574219 C 18.964844 12.632812 18.726562 13.746094 18.085938 14.640625 Z M 18.085938 14.640625 "/>
<path style=" stroke:none;fill-rule:nonzero;fill:rgb(0%,0%,0%);fill-opacity:1;" d="M 14.667969 9 C 14.667969 9.554688 14.21875 10 13.667969 10 C 13.113281 10 12.667969 9.554688 12.667969 9 C 12.667969 8.867188 12.691406 8.738281 12.738281 8.625 C 13.3125 8.339844 14.046875 8.320312 14.59375 8.625 C 14.640625 8.738281 14.667969 8.867188 14.667969 9 Z M 14.667969 9 "/>
<path style=" stroke:none;fill-rule:nonzero;fill:rgb(84.313725%,80%,78.431373%);fill-opacity:1;" d="M 13.332031 9 C 13.332031 9.183594 13.183594 9.332031 13 9.332031 C 12.816406 9.332031 12.667969 9.183594 12.667969 9 C 12.667969 8.816406 12.816406 8.667969 13 8.667969 C 13.183594 8.667969 13.332031 8.816406 13.332031 9 Z M 13.332031 9 "/>
<path style=" stroke:none;fill-rule:nonzero;fill:rgb(0%,0%,0%);fill-opacity:1;" d="M 19.332031 9 C 19.332031 9.554688 18.886719 10 18.332031 10 C 17.78125 10 17.332031 9.554688 17.332031 9 C 17.332031 8.867188 17.359375 8.738281 17.40625 8.625 C 17.953125 8.320312 18.6875 8.339844 19.261719 8.625 C 19.308594 8.738281 19.332031 8.867188 19.332031 9 Z M 19.332031 9 "/>
<path style=" stroke:none;fill-rule:nonzero;fill:rgb(84.313725%,80%,78.431373%);fill-opacity:1;" d="M 18 9 C 18 9.183594 17.851562 9.332031 17.667969 9.332031 C 17.484375 9.332031 17.332031 9.183594 17.332031 9 C 17.332031 8.816406 17.484375 8.667969 17.667969 8.667969 C 17.851562 8.667969 18 8.816406 18 9 Z M 18 9 "/>
</g>
</svg>
