<?xml version="1.0" encoding="UTF-8"?>
<svg xmlns="http://www.w3.org/2000/svg" xmlns:xlink="http://www.w3.org/1999/xlink" width="32pt" height="32pt" viewBox="0 0 32 32" version="1.1">
<g id="surface16539389">
<path style=" stroke:none;fill-rule:nonzero;fill:rgb(97.254902%,54.509804%,85.490196%);fill-opacity:1;" d="M 20.992188 2.558594 C 20.761719 2.558594 20.511719 2.679688 20.371094 2.824219 C 20.230469 2.96875 20.164062 3.121094 20.121094 3.253906 C 20.023438 3.53125 20.003906 3.789062 19.992188 4.066406 C 19.964844 4.613281 19.996094 5.21875 19.96875 5.515625 C 19.90625 6.289062 19.738281 7.308594 19.496094 7.609375 C 19.378906 7.507812 19.238281 7.390625 19.203125 7.355469 L 19.179688 7.328125 L 19.148438 7.308594 C 18.578125 6.851562 18.039062 6.449219 17.632812 6.058594 C 17.664062 5.953125 17.699219 5.851562 17.699219 5.761719 C 17.699219 5.726562 17.675781 5.6875 17.671875 5.652344 C 17.71875 5.636719 17.707031 5.65625 17.761719 5.628906 L 17.792969 5.609375 L 17.828125 5.589844 C 18.210938 5.332031 18.488281 4.828125 18.238281 4.320312 L 18.191406 4.230469 L 18.117188 4.15625 C 17.902344 3.941406 17.683594 3.839844 17.34375 3.839844 C 16.742188 3.777344 16.109375 3.808594 15.789062 3.734375 C 15.6875 3.664062 15.613281 3.53125 15.511719 3.496094 C 15.261719 3.421875 15.03125 3.421875 14.828125 3.445312 C 14.628906 3.46875 14.453125 3.515625 14.296875 3.574219 C 14.289062 3.578125 14.28125 3.582031 14.273438 3.585938 C 14.199219 3.539062 14.121094 3.488281 14.023438 3.441406 C 13.964844 3.410156 13.902344 3.378906 13.800781 3.351562 C 13.726562 3.328125 13.566406 3.339844 13.390625 3.386719 C 13.28125 3.410156 13.164062 3.421875 13.0625 3.496094 C 12.914062 3.613281 12.832031 3.765625 12.792969 3.886719 C 12.714844 4.121094 12.738281 4.257812 12.738281 4.351562 L 12.738281 4.355469 C 12.328125 4.601562 12.03125 4.953125 11.902344 5.34375 C 11.890625 5.378906 11.902344 5.417969 11.890625 5.453125 C 11.648438 5.300781 11.382812 5.101562 10.941406 5.058594 L 10.914062 5.054688 L 10.878906 5.054688 C 10.296875 5.054688 9.796875 5.316406 9.429688 5.671875 C 9.023438 6.019531 8.917969 6.304688 8.789062 6.523438 C 8.640625 6.441406 8.488281 6.351562 8.351562 6.359375 C 8.164062 6.371094 8.03125 6.4375 7.921875 6.507812 C 7.699219 6.648438 7.550781 6.816406 7.457031 7.09375 L 7.421875 7.191406 L 7.421875 7.296875 C 7.421875 7.210938 7.425781 7.265625 7.363281 7.390625 L 7.34375 7.433594 L 7.328125 7.476562 C 7.273438 7.648438 7.183594 7.886719 7.082031 8.097656 C 6.984375 8.308594 6.859375 8.492188 6.84375 8.507812 C 6.609375 8.738281 6.238281 8.851562 5.773438 8.984375 L 5.75 8.992188 C 4.761719 9.324219 4.011719 9.664062 3.160156 10.121094 C 2.871094 10.265625 2.601562 10.445312 2.363281 10.683594 L 2.34375 10.699219 L 2.328125 10.71875 C 1.726562 11.421875 1.851562 12.328125 2.089844 12.960938 C 2.148438 13.144531 2.203125 13.308594 2.261719 13.53125 C 2.265625 13.550781 2.265625 13.539062 2.269531 13.542969 C 1.957031 13.882812 1.890625 14.34375 1.949219 14.636719 C 2.011719 14.941406 2.167969 15.15625 2.167969 15.15625 L 2.125 15.089844 C 2.816406 16.363281 2.785156 17.347656 2.546875 18.875 C 2.464844 18.917969 2.371094 18.941406 2.308594 18.996094 C 2.066406 19.203125 1.898438 19.546875 1.941406 19.945312 C 1.960938 20.308594 2.140625 20.574219 2.339844 20.746094 C 2.550781 20.929688 2.796875 21.050781 3.074219 21.109375 L 3.136719 21.121094 L 3.519531 21.121094 C 4.101562 21.121094 4.609375 20.921875 5.070312 20.726562 C 5.53125 20.53125 5.953125 20.339844 6.234375 20.269531 L 6.304688 20.25 L 6.363281 20.21875 C 6.71875 20.042969 6.984375 19.941406 7.21875 19.894531 C 7.46875 19.855469 7.804688 19.902344 8.257812 19.902344 C 8.78125 19.902344 9.449219 19.777344 9.828125 19.144531 L 9.839844 19.121094 L 9.851562 19.101562 C 9.878906 19.050781 9.90625 19.007812 9.929688 18.972656 C 9.96875 18.964844 10.074219 18.914062 10.179688 18.871094 C 10.710938 18.78125 11.277344 18.964844 12.148438 18.808594 L 12.175781 18.800781 L 12.207031 18.789062 C 12.601562 18.675781 12.988281 18.621094 13.378906 18.621094 C 13.988281 18.621094 14.390625 18.605469 14.53125 18.640625 C 14.671875 18.679688 14.710938 18.671875 14.898438 19.121094 L 14.914062 19.167969 C 14.925781 19.191406 14.964844 19.285156 15.03125 19.40625 C 15.101562 19.527344 15.203125 19.710938 15.457031 19.835938 L 15.519531 19.867188 L 15.589844 19.886719 C 15.851562 19.949219 16.140625 19.910156 16.359375 19.8125 C 16.570312 19.714844 16.714844 19.578125 16.835938 19.460938 C 16.804688 19.488281 16.996094 19.425781 17.097656 19.390625 C 17.0625 19.476562 17.066406 19.664062 17.019531 19.707031 C 16.925781 19.800781 16.878906 19.890625 16.851562 19.941406 C 16.636719 20.144531 16.535156 20.382812 16.476562 20.582031 C 16.40625 20.816406 16.382812 21.015625 16.382812 21.183594 L 16.382812 21.320312 L 16.441406 21.441406 C 16.585938 21.773438 16.953125 22.007812 17.246094 22.050781 C 17.542969 22.089844 17.78125 22.03125 17.988281 21.960938 C 18.410156 21.824219 18.796875 21.589844 18.847656 21.566406 L 18.898438 21.539062 L 18.941406 21.503906 C 18.96875 21.636719 18.976562 21.769531 19.011719 21.914062 C 19.082031 22.195312 19.148438 22.445312 19.265625 22.6875 L 19.28125 22.710938 C 19.253906 22.824219 19.210938 22.9375 19.265625 23.105469 C 19.335938 23.339844 19.480469 23.476562 19.621094 23.597656 L 19.632812 23.601562 C 20.109375 23.984375 20.59375 24.050781 20.917969 24.160156 L 21.015625 24.191406 L 21.121094 24.191406 C 21.035156 24.191406 21.234375 24.257812 21.566406 24.257812 C 21.832031 24.257812 22.421875 24.273438 22.984375 24.261719 C 23.265625 24.261719 23.542969 24.25 23.789062 24.226562 C 24.03125 24.203125 24.203125 24.210938 24.5 24.039062 C 24.886719 23.835938 25.082031 23.566406 25.21875 23.429688 L 25.121094 23.511719 C 25.335938 23.367188 25.390625 23.246094 25.453125 23.140625 C 25.519531 23.039062 25.570312 22.945312 25.613281 22.871094 C 25.636719 22.832031 25.640625 22.828125 25.65625 22.808594 C 25.691406 22.800781 25.757812 22.816406 25.789062 22.808594 C 25.933594 22.765625 26.058594 22.703125 26.179688 22.636719 C 26.300781 22.566406 26.417969 22.488281 26.53125 22.378906 C 26.640625 22.265625 26.800781 22.121094 26.808594 21.773438 C 26.835938 21.460938 26.808594 21.191406 26.789062 21.019531 C 26.765625 20.847656 26.765625 20.777344 26.789062 20.683594 C 26.941406 20.351562 27.160156 20.0625 27.378906 19.632812 L 27.378906 19.628906 C 27.578125 19.238281 27.773438 18.847656 27.96875 18.453125 L 27.941406 18.503906 C 28.34375 17.851562 28.414062 17.21875 28.5625 16.8125 C 28.847656 16.101562 28.753906 15.324219 28.609375 14.640625 C 28.539062 14.296875 28.449219 13.980469 28.351562 13.710938 C 28.261719 13.457031 28.199219 13.277344 28.03125 13.066406 C 27.867188 12.800781 27.691406 12.605469 27.582031 12.476562 C 27.46875 12.335938 27.421875 12.257812 27.378906 12.09375 C 27.378906 11.972656 27.386719 11.839844 27.34375 11.652344 C 27.289062 11.414062 27.140625 11.0625 26.78125 10.882812 L 26.738281 10.863281 L 26.699219 10.851562 C 26.519531 10.789062 26.457031 10.816406 26.359375 10.824219 L 26.367188 10.878906 C 26.367188 10.871094 26.363281 10.871094 26.359375 10.863281 C 26.363281 10.863281 26.359375 10.832031 26.359375 10.824219 C 26.355469 10.824219 26.351562 10.824219 26.351562 10.824219 C 26.328125 10.628906 26.257812 10.476562 26.199219 10.398438 C 26.136719 10.3125 26.085938 10.265625 26.050781 10.234375 C 25.710938 9.894531 25.472656 9.28125 24.695312 8.851562 L 24.640625 8.820312 L 24.585938 8.800781 C 24.515625 8.777344 24.378906 8.6875 24.324219 8.636719 L 24.296875 8.609375 C 24.023438 8.367188 23.734375 7.320312 23.609375 6.605469 C 23.597656 6.535156 23.582031 6.488281 23.570312 6.449219 C 23.550781 6.390625 23.53125 6.339844 23.507812 6.285156 C 23.460938 6.171875 23.40625 6.054688 23.351562 5.941406 C 23.296875 5.824219 23.238281 5.710938 23.1875 5.613281 C 23.164062 5.566406 23.136719 5.523438 23.113281 5.484375 C 23.085938 5.441406 23.101562 5.425781 22.980469 5.308594 L 22.9375 5.261719 L 22.882812 5.226562 C 22.699219 5.105469 22.472656 5.074219 22.328125 5.085938 C 22.316406 5.085938 22.316406 5.089844 22.308594 5.089844 C 22.199219 4.652344 22.085938 4.210938 21.921875 3.699219 C 21.886719 3.605469 21.835938 3.449219 21.765625 3.285156 C 21.699219 3.121094 21.660156 2.960938 21.445312 2.746094 L 21.257812 2.558594 Z M 17.414062 6.40625 L 17.246094 6.523438 C 17.273438 6.511719 17.28125 6.484375 17.304688 6.46875 C 17.34375 6.441406 17.359375 6.457031 17.414062 6.40625 Z M 8.703125 7.296875 L 8.671875 7.5 C 8.664062 7.523438 8.65625 7.519531 8.648438 7.527344 C 8.648438 7.523438 8.644531 7.523438 8.640625 7.519531 C 8.671875 7.453125 8.703125 7.40625 8.703125 7.296875 Z M 16.960938 19.839844 C 16.925781 19.863281 16.90625 19.890625 16.878906 19.914062 C 16.886719 19.90625 16.882812 19.910156 16.890625 19.898438 Z M 18.878906 21.121094 C 18.878906 21.144531 18.890625 21.164062 18.890625 21.1875 C 18.890625 21.183594 18.886719 21.183594 18.886719 21.179688 C 18.882812 21.175781 18.878906 21.226562 18.878906 21.121094 Z M 25.511719 22.808594 C 25.46875 22.828125 25.480469 22.847656 25.40625 22.847656 L 25.203125 22.816406 C 25.359375 22.863281 25.417969 22.820312 25.511719 22.808594 Z M 21.824219 25.601562 C 21.761719 25.664062 21.761719 25.726562 21.761719 25.792969 C 21.886719 26.113281 22.015625 26.433594 22.207031 26.753906 C 22.460938 27.265625 22.71875 27.710938 23.234375 28.097656 C 23.296875 28.160156 23.359375 28.160156 23.421875 28.160156 C 23.550781 28.160156 23.742188 28.097656 23.808594 28.03125 C 24 27.777344 24 27.457031 24.128906 27.136719 C 24.191406 27.074219 24.191406 27.007812 24.257812 26.878906 C 24.320312 26.6875 24.320312 26.558594 24.320312 26.367188 L 24.320312 25.921875 C 24.320312 25.792969 24.253906 25.601562 24.128906 25.601562 C 24 25.601562 24 25.726562 23.871094 25.792969 L 23.550781 25.792969 C 23.296875 25.921875 22.976562 25.859375 22.71875 25.792969 C 22.464844 25.726562 22.207031 25.601562 21.953125 25.601562 Z M 21.824219 25.601562 "/>
</g>
</svg>
